<svg version="1.1" id="Layer_1" xmlns="http://www.w3.org/2000/svg" xmlns:xlink="http://www.w3.org/1999/xlink" x="0px" y="0px"
	 width="100%" viewBox="0 0 592 496" enable-background="new 0 0 592 496" xml:space="preserve">
<path fill="#00000" opacity="1.000000" stroke="none" 
	d="
M396.309631,242.023438 
	C390.204376,266.141205 381.722412,288.880188 367.948486,309.236908 
	C350.319336,335.291473 327.524506,354.983490 295.397705,359.464386 
	C262.056458,364.114716 229.524857,360.796875 200.471252,341.521973 
	C185.625809,331.673157 178.194183,317.031921 176.109848,299.717102 
	C174.037628,282.502869 174.119400,265.350708 183.117798,249.698242 
	C191.801834,234.592590 204.389725,223.377335 219.512817,214.922714 
	C221.250519,213.951248 223.017807,213.175537 224.407593,211.592590 
	C239.663879,194.216141 258.752350,186.832458 281.611877,190.829025 
	C288.944305,192.110977 295.464355,189.943542 302.134583,188.367310 
	C312.813904,185.843658 322.915405,181.981201 332.688599,176.520569 
	C346.659912,168.714279 361.802307,163.903427 378.148315,169.423569 
	C392.218201,174.175049 400.802002,186.304199 401.367462,201.172348 
	C401.891754,214.958633 399.581116,228.323395 396.309631,242.023438 
M271.164001,282.716187 
	C258.953278,287.504333 246.115814,289.384491 233.204407,290.963074 
	C229.698822,291.391663 227.119766,290.193817 224.984573,287.426666 
	C212.151627,270.795288 207.641251,252.508682 213.776474,232.050934 
	C214.281143,230.368164 215.421356,228.705017 214.060730,226.928024 
	C212.668793,226.526138 211.780334,227.393814 210.887131,228.087967 
	C203.359283,233.938400 196.367157,240.341736 190.930191,248.246490 
	C180.369690,263.600311 179.632690,281.181946 189.131271,294.544708 
	C195.121918,302.972504 203.411118,308.401642 213.110107,311.720062 
	C228.153961,316.867096 243.570587,316.597900 259.060089,314.611145 
	C293.127625,310.241516 320.382568,294.449005 339.753357,265.838165 
	C352.691528,246.728333 362.508392,225.982483 370.947632,204.555359 
	C373.583435,197.863037 375.921875,191.092178 375.655457,183.781479 
	C375.417511,177.251205 371.078247,172.963089 364.686829,173.432297 
	C355.336945,174.118713 345.834229,175.480087 337.873016,180.558914 
	C327.721893,187.034821 316.739471,191.008804 305.349274,194.271286 
	C303.764160,194.725327 302.049713,195.021606 301.556854,197.208847 
	C302.157928,198.830780 303.831116,199.405914 305.136749,200.341782 
	C311.850189,205.153702 317.466156,211.009903 321.947021,217.944931 
	C323.915802,220.992035 324.626923,224.033173 323.587372,227.841476 
	C316.085846,255.322342 298.032318,272.677887 271.164001,282.716187 
z"/>
<path fill="#00000" opacity="1.000000" stroke="none" 
	d="
M265.626282,137.462036 
	C299.415863,129.886444 352.498230,142.903656 363.502502,161.668488 
	C357.121643,162.381256 351.570496,164.681976 344.989105,160.567200 
	C325.665741,148.486008 304.163849,143.388199 281.500916,145.506882 
	C239.678284,149.416733 202.320282,176.483475 187.328552,219.104736 
	C185.233749,225.060242 184.083389,231.273865 182.790024,237.467545 
	C181.103470,245.544098 175.305527,251.864365 172.366653,259.584503 
	C170.157913,255.741394 170.794678,251.919968 170.982239,248.252838 
	C173.676376,195.580872 211.275787,150.418213 262.740631,137.908600 
	C263.545288,137.713013 264.387543,137.672150 265.626282,137.462036 
z"/>
<path fill="#00000" opacity="1.000000" stroke="none" 
	d="
M397.662903,272.732910 
	C399.604004,265.007416 398.114471,257.365814 400.138367,250.041534 
	C402.119446,242.872208 403.615021,235.568741 405.327637,228.307327 
	C410.699890,233.425705 410.800201,263.980225 405.731781,283.877075 
	C400.902100,302.836792 391.692322,319.419128 378.721436,333.905243 
	C358.626404,356.347717 333.323395,369.142181 303.503113,372.148163 
	C282.108368,374.304871 257.787537,370.970612 251.513748,364.958954 
	C257.352539,365.285858 262.550690,365.346832 267.694092,365.908997 
	C281.810028,367.451843 295.565308,365.703033 309.082794,361.701965 
	C322.319000,357.784119 335.704407,354.178345 347.435272,346.478088 
	C374.192261,328.914673 391.182098,304.643188 397.662903,272.732910 
z"/>
<path fill="#00000" opacity="1.000000" stroke="none" 
	d="
M136.727783,323.653137 
	C131.880539,327.460754 127.520645,327.022552 124.109238,322.267242 
	C120.003677,316.544403 118.278168,310.037323 118.662605,302.945251 
	C118.811935,300.190430 120.373985,299.644836 122.617058,299.684875 
	C127.066559,299.764221 131.220627,300.232666 133.834702,294.825867 
	C135.474899,291.433380 140.722504,292.157043 144.338379,295.532471 
	C148.441345,299.362610 149.993530,304.535492 151.075272,309.758545 
	C153.195084,319.993835 152.261414,320.923279 141.812103,320.094788 
	C141.176804,320.044403 140.557419,319.793518 139.989700,319.650757 
	C138.747742,317.082947 140.819611,315.039581 140.658463,312.734802 
	C140.493744,310.378815 139.896133,308.194824 138.488251,305.152008 
	C137.673843,311.795898 139.730026,317.819214 136.727783,323.653137 
z"/>
<path fill="#00000" opacity="1.000000" stroke="none" 
	d="
M146.962402,186.837097 
	C151.075806,189.913696 151.795776,193.943054 151.045593,198.230621 
	C150.085480,203.717758 147.683960,208.629471 144.353195,213.128250 
	C142.316742,215.878830 140.288391,216.230957 137.732819,213.932831 
	C136.372787,212.709808 134.810959,211.704941 133.496033,210.439667 
	C132.015701,209.015228 130.759552,208.501633 128.719986,209.706314 
	C124.789719,212.027771 122.084778,209.946732 120.089676,206.583069 
	C118.480286,203.869705 118.278389,200.842102 118.987038,197.866516 
	C119.639236,195.127945 120.346138,192.303360 121.633728,189.831726 
	C128.308990,177.018082 127.314484,178.022476 137.390366,187.609161 
	C134.581039,190.660294 130.590744,192.966156 129.881866,198.326279 
	C132.466599,196.378922 133.591248,193.812454 135.429413,191.939926 
	C138.456512,188.856308 141.013123,184.419144 146.962402,186.837097 
M139.066666,198.474274 
	C137.263168,200.867340 135.459671,203.260391 133.656174,205.653458 
	C137.651718,204.440735 139.049927,201.253189 140.253586,197.927322 
	C140.257385,197.916779 139.849716,197.711868 139.624283,197.686691 
	C139.537247,197.676971 139.422501,197.915405 139.066666,198.474274 
z"/>
<path fill="#00000" opacity="1.000000" stroke="none" 
	d="
M214.024078,122.876045 
	C214.156052,128.541275 209.242142,127.516708 206.103851,129.887924 
	C203.702057,119.049774 199.004730,110.122665 191.984238,102.536133 
	C199.936310,92.825821 206.747559,100.437714 214.117661,104.163788 
	C214.335846,99.003967 210.022125,97.033920 207.908066,93.684174 
	C210.277222,90.923225 213.095520,89.521187 216.617981,88.901321 
	C219.608276,98.853935 223.913895,107.873833 230.807587,115.482384 
	C223.303085,125.558525 216.425949,117.681931 209.041580,114.094170 
	C208.745743,118.545914 211.459747,120.474152 214.024078,122.876045 
z"/>
<path fill="#00000" opacity="1.000000" stroke="none" 
	d="
M220.805328,407.831726 
	C218.391846,411.337769 218.436935,415.371918 216.925797,418.766144 
	C209.410690,417.297546 207.247864,414.984375 206.668259,408.233887 
	C206.427597,405.431000 206.013168,402.643005 205.610931,399.291382 
	C202.095047,402.166901 201.397903,405.823029 201.039124,409.793854 
	C196.935562,409.830719 194.514801,407.525635 191.652496,405.375793 
	C198.826218,397.537933 203.893417,389.149841 206.010803,379.161133 
	C218.414810,379.851715 215.785309,390.088440 217.486160,398.227692 
	C220.659836,394.907898 221.417328,391.401031 222.133270,387.742767 
	C225.843460,388.148743 228.462448,389.977203 231.526932,392.494232 
	C226.247223,396.487488 223.950714,402.209930 220.805328,407.831726 
z"/>
<path fill="#00000" opacity="1.000000" stroke="none" 
	d="
M455.604431,321.720398 
	C448.575775,326.321014 442.031219,326.351990 436.353180,322.046539 
	C430.816864,317.848572 428.749451,310.939880 430.946442,303.725281 
	C431.380035,302.301453 431.986389,300.912109 432.663300,299.583374 
	C437.348694,290.385773 439.475067,290.107239 446.808563,297.789978 
	C446.073181,300.599854 443.195770,301.949402 441.983948,304.515442 
	C440.137421,308.425476 438.992004,312.319885 441.235413,316.390594 
	C441.939453,317.668121 443.416382,318.069458 444.761658,317.534393 
	C449.177521,315.778076 450.429382,311.817261 451.469025,307.684143 
	C452.218475,304.704498 449.916046,301.886688 451.011505,298.979828 
	C451.438599,298.770386 451.727600,298.506653 452.019989,298.502869 
	C463.211731,298.357330 464.631104,300.291565 461.538971,311.129211 
	C460.425781,315.030823 459.022247,318.711151 455.604431,321.720398 
z"/>
<path fill="#00000" opacity="1.000000" stroke="none" 
	d="
M448.068542,210.558105 
	C439.302917,217.984909 437.178955,217.525070 432.429230,207.500488 
	C427.877350,197.893509 429.914215,189.167877 437.705292,184.898224 
	C445.843231,180.438492 455.048798,183.237564 459.425629,191.449829 
	C461.341370,195.044373 462.115387,198.936676 462.708862,202.899292 
	C463.233948,206.405609 461.969482,208.033997 458.220612,208.352432 
	C451.882599,208.890793 451.981964,209.100601 451.687714,202.693863 
	C451.491974,198.432159 450.267761,194.469391 446.973541,191.500244 
	C443.778687,188.620667 440.974518,189.558212 440.265503,193.791428 
	C439.431427,198.770996 441.044556,202.919983 444.841827,206.307083 
	C446.118774,207.446060 448.290497,207.930740 448.068542,210.558105 
z"/>
<path fill="#00000" opacity="1.000000" stroke="none" 
	d="
M400.046448,152.870132 
	C396.443054,148.473877 394.011566,143.941818 395.014038,138.437683 
	C397.054718,127.233124 409.211121,121.945427 418.933014,127.918282 
	C421.979279,129.789841 424.234894,132.436630 426.112579,135.427078 
	C430.722565,142.769073 428.979340,145.989182 419.684235,147.075592 
	C418.218781,144.745499 417.991821,141.772003 416.148956,139.541138 
	C414.085602,137.043396 411.786072,134.916656 408.524078,134.251816 
	C404.417175,133.414780 402.312408,135.762009 403.808777,139.692215 
	C405.549072,144.262985 408.813721,147.438675 413.458801,149.198471 
	C414.800781,149.706863 416.537476,149.302902 417.680634,151.137329 
	C417.102997,154.123199 414.914124,156.456482 413.071167,158.940781 
	C411.843414,160.595810 410.176117,160.168808 408.552582,159.461975 
	C405.274200,158.034668 402.684875,155.717194 400.046448,152.870132 
z"/>
<path fill="#00000" opacity="1.000000" stroke="none" 
	d="
M413.649017,370.696228 
	C417.177246,367.506165 418.058868,363.382568 419.245331,359.157471 
	C423.340027,359.194946 426.584106,361.282471 428.579651,364.058685 
	C430.573517,366.832458 427.821228,369.683044 426.284760,372.141449 
	C423.106018,377.227570 418.989044,381.359039 412.752502,382.244202 
	C406.216766,383.171814 400.978973,380.707886 397.482208,375.048615 
	C394.007446,369.424988 394.181000,363.669708 397.599060,358.097870 
	C400.200287,353.857544 404.167938,350.991333 408.539703,348.901031 
	C413.549835,346.505432 413.487610,351.865082 415.352631,354.013672 
	C417.464081,356.446136 415.778595,357.675812 413.358704,358.640228 
	C409.552002,360.157349 406.447418,362.640778 404.633240,366.433228 
	C403.629089,368.532379 402.362427,370.858948 404.499115,372.870819 
	C406.528015,374.781250 408.856506,373.855896 410.965881,372.701721 
	C411.831146,372.228241 412.576080,371.534821 413.649017,370.696228 
z"/>
<path fill="#00000" opacity="1.000000" stroke="none" 
	d="
M356.373718,396.637115 
	C362.419922,402.285950 366.463593,409.525757 374.714630,413.475677 
	C370.309204,416.941589 365.474670,417.791046 360.840973,419.839905 
	C358.715607,415.933472 357.500519,411.008942 351.452057,414.090149 
	C346.116638,416.808044 350.875061,420.071869 350.519623,423.451874 
	C348.028564,425.427521 345.096893,426.896393 340.916931,426.889008 
	C342.654266,419.243835 341.732300,411.825775 341.701660,404.416962 
	C341.696838,403.254730 341.448212,402.069305 341.606354,400.935638 
	C341.955322,398.433960 337.105927,395.807892 341.964783,393.384644 
	C349.203796,389.774353 349.663116,389.734772 354.759644,394.932220 
	C355.225006,395.406799 355.675018,395.896515 356.373718,396.637115 
z"/>
<path fill="#00000" opacity="1.000000" stroke="none" 
	d="
M341.136749,98.146500 
	C344.580048,94.100105 348.565247,90.919601 350.474976,86.128128 
	C350.797180,85.319725 351.339142,84.821739 352.304260,84.700783 
	C356.755890,84.142921 362.358551,88.928925 362.200745,93.391327 
	C362.048187,97.704216 361.587097,102.005447 361.383331,106.317551 
	C361.257843,108.973068 361.418518,111.641006 361.343842,114.300369 
	C361.273834,116.794167 363.084595,118.975464 362.392029,122.221893 
	C357.719513,121.041153 353.420685,119.293892 349.388550,117.206619 
	C348.846588,114.894043 350.427979,113.469124 350.679749,111.682922 
	C351.018768,109.277679 350.012238,107.926277 347.859772,107.089432 
	C345.733887,106.262917 343.796814,105.717369 342.020172,107.874687 
	C337.359344,113.534088 336.534790,113.568306 329.825562,108.243988 
	C334.501434,105.855919 337.644165,102.076118 341.136749,98.146500 
z"/>
<path fill="#00000" opacity="1.000000" stroke="none" 
	d="
M280.270355,402.683472 
	C284.225403,402.710846 287.712463,402.730530 291.199402,402.765106 
	C299.461914,402.846985 301.865570,406.508972 299.207550,414.956757 
	C298.897034,415.054565 298.545807,415.293304 298.279114,415.220825 
	C288.861115,412.661438 285.231140,417.228058 287.823303,428.435059 
	C288.225403,430.173370 288.761688,431.880615 289.218842,433.540192 
	C285.436951,435.007080 284.628632,434.989990 279.094818,433.404358 
	C280.667419,428.889252 281.929626,424.322876 281.706970,419.425751 
	C281.442322,413.605103 280.428772,412.619598 274.507568,413.365387 
	C273.052612,413.548676 271.763397,414.694244 270.188416,414.090088 
	C268.566010,404.694366 270.458160,402.450256 280.270355,402.683472 
z"/>
<path fill="#00000" opacity="1.000000" stroke="none" 
	d="
M287.596252,104.418007 
	C284.977478,104.050888 282.661835,105.755508 279.971741,103.900589 
	C282.191345,99.388893 281.365448,94.403198 281.727112,89.509041 
	C282.079376,84.742195 279.858124,83.784340 275.771362,84.287537 
	C273.688568,84.544006 271.837372,86.187309 269.335266,85.283234 
	C268.649750,82.348206 269.812439,79.458252 269.911530,76.540421 
	C269.990540,74.213257 272.032593,73.849838 273.961212,73.790962 
	C280.763184,73.583260 287.565796,73.396263 294.368011,73.196045 
	C296.487671,73.133659 297.783142,74.085136 298.357147,76.165863 
	C299.109406,78.892723 299.471191,81.626434 299.348816,84.266884 
	C298.693665,84.583260 298.402191,84.849602 298.117981,84.842010 
	C294.971741,84.757927 290.770752,81.454483 288.945831,85.040001 
	C286.637299,89.575714 288.056213,95.051338 288.890930,100.118523 
	C289.136719,101.610535 292.171539,103.819031 287.596252,104.418007 
z"/>
<path fill="#00000" opacity="1.000000" stroke="none" 
	d="
M459.515015,238.597229 
	C460.545654,252.665619 460.651306,266.250793 458.212158,279.754272 
	C457.752289,282.300171 457.403473,285.194214 453.872314,284.376404 
	C450.541473,283.604919 451.783722,280.643524 452.083618,278.534332 
	C454.411743,262.160187 454.568085,245.813705 452.028168,229.441132 
	C451.715179,227.423386 450.469788,224.452988 454.129944,223.873566 
	C457.433228,223.350632 457.872955,225.886185 458.200897,228.273956 
	C458.652008,231.558655 459.024750,234.854095 459.515015,238.597229 
z"/>
<path fill="#00000" opacity="1.000000" stroke="none" 
	d="
M169.560608,159.192047 
	C163.811722,151.563812 157.037918,145.622116 148.455933,141.526001 
	C150.685608,137.095474 154.243103,134.170563 157.311249,130.685074 
	C163.595398,139.304474 171.069427,145.868027 180.513275,151.093018 
	C178.679153,154.650543 176.072372,157.734344 173.140945,160.541046 
	C171.610947,162.005936 170.452789,161.166260 169.560608,159.192047 
z"/>
<path fill="#00000" opacity="1.000000" stroke="none" 
	d="
M168.604340,350.495483 
	C169.691132,349.071289 169.896942,347.325256 172.140396,346.936737 
	C175.406204,349.555725 178.078430,352.991211 180.834824,356.807098 
	C171.481918,361.910583 163.490646,367.858643 157.600983,376.811920 
	C153.924530,373.704437 151.091476,370.198456 148.018631,366.012604 
	C156.605240,362.764587 162.479828,356.747711 168.604340,350.495483 
z"/>
<path fill="#00000" opacity="1.000000" stroke="none" 
	d="
M121.686646,234.046661 
	C122.055092,231.301071 122.427124,229.010605 122.762833,226.714813 
	C123.089699,224.479492 124.383873,223.548340 126.581955,223.831451 
	C129.022507,224.145782 128.737976,225.830460 128.498398,227.574814 
	C127.391502,235.634186 126.456528,243.703384 126.309532,251.858353 
	C126.138382,261.352814 127.110870,270.746277 128.343582,280.131531 
	C128.599014,282.076202 129.249878,284.376038 126.099182,284.567566 
	C123.377953,284.733002 122.986679,282.808685 122.654800,280.663116 
	C120.280746,265.314606 119.944107,249.931046 121.686646,234.046661 
z"/>
<path fill="#00000" opacity="1.000000" stroke="none" 
	d="
M188.846512,139.922211 
	C187.344910,138.456741 186.537399,137.018555 187.199829,135.267441 
	C187.982986,133.197144 189.514008,132.077423 191.810333,132.511047 
	C193.943512,132.913864 195.034851,134.539612 194.714050,136.453033 
	C194.220993,139.393875 192.535400,141.237137 188.846512,139.922211 
z"/>
<path fill="#00000" opacity="1.000000" stroke="none" 
	d="
M376.584961,131.511826 
	C373.910889,129.238983 373.098938,126.914429 375.980103,124.774567 
	C378.044708,123.241165 380.051544,124.030235 381.544342,126.008087 
	C382.400452,127.142334 382.678680,128.439255 381.912811,129.702988 
	C380.771698,131.585831 379.161102,132.499634 376.584961,131.511826 
z"/>
<path fill="#00000" opacity="1.000000" stroke="none" 
	d="
M421.833649,177.401978 
	C418.429474,177.074493 417.111511,175.238495 417.517395,172.321381 
	C417.778564,170.444626 419.193268,169.517731 421.079254,169.547394 
	C423.212341,169.580917 424.476624,170.940796 424.949524,172.809158 
	C425.526550,175.089035 424.371490,176.605606 421.833649,177.401978 
z"/>
<path fill="#00000" opacity="1.000000" stroke="none" 
	d="
M162.962357,173.865082 
	C161.868637,176.986603 159.968109,178.497330 157.152115,177.022293 
	C154.865219,175.824417 154.839615,173.548523 155.991730,171.388733 
	C156.663651,170.129150 157.837448,169.464188 159.290054,169.551804 
	C161.730621,169.699005 162.667877,171.333191 162.962357,173.865082 
z"/>
<path fill="#00000" opacity="1.000000" stroke="none" 
	d="
M394.640442,401.704834 
	C392.057617,403.651978 389.975311,403.352570 388.410278,400.987213 
	C387.354584,399.391693 387.848541,397.760223 389.096252,396.440369 
	C390.346130,395.118286 391.937927,394.579010 393.609650,395.491364 
	C396.232727,396.923004 396.203461,399.068665 394.640442,401.704834 
z"/>
<path fill="#00000" opacity="1.000000" stroke="none" 
	d="
M139.615341,342.886871 
	C143.210678,346.135437 143.271652,349.283936 140.084076,350.132935 
	C137.665695,350.777039 135.639267,349.861511 135.107346,347.379822 
	C134.446609,344.297272 136.089615,342.748291 139.615341,342.886871 
z"/>
<path fill="#00000" opacity="1.000000" stroke="none" 
	d="
M437.884949,347.638672 
	C437.788940,344.456390 439.108490,342.845581 441.953003,342.866028 
	C443.612122,342.877930 444.751343,343.918640 445.098083,345.525879 
	C445.515320,347.459900 445.038300,349.250916 443.147552,350.156647 
	C440.764069,351.298431 439.020721,350.374817 437.884949,347.638672 
z"/>
<path fill="#00000" opacity="1.000000" stroke="none" 
	d="
M178.573090,387.147583 
	C180.285660,389.645172 179.895126,391.554199 177.593567,392.772949 
	C175.832901,393.705261 174.048859,393.334808 172.741211,391.726379 
	C171.569672,390.285370 171.467896,388.627411 172.658188,387.219116 
	C174.330734,385.240173 176.320450,385.374115 178.573090,387.147583 
z"/>
<path fill="#00000" opacity="1.000000" stroke="none" 
	d="
M314.816162,98.216797 
	C317.369751,98.830238 318.718719,100.101219 318.528656,102.508713 
	C318.414856,103.950562 317.626953,104.959732 316.263062,105.527351 
	C314.700531,106.177635 313.291870,105.821854 312.078583,104.803116 
	C309.666321,102.777748 310.607361,100.199287 314.816162,98.216797 
z"/>
<path fill="#00000" opacity="1.000000" stroke="none" 
	d="
M317.350769,425.737488 
	C320.190735,425.452911 322.070984,426.108459 322.225189,428.971436 
	C322.328308,430.886139 321.222595,432.078888 319.526031,432.728699 
	C317.692993,433.430756 316.119507,432.799408 315.266083,431.183136 
	C314.099609,428.973907 314.485565,426.996185 317.350769,425.737488 
z"/>
</svg>